# xmcd
#
# Track frame offsets:
# 150
# 17033
# 31159
# 46768
# 66129
# 85482
# 102778
# 120113
# 133501
# 149193
# 166891
#
# Disc length: 2462 seconds
#
#
# Revision: 0
# Processed by: cddbd v1.5.2PL0 Copyright (c) Steve Scherf et al.
# Submitted via: FreeRIP 2.944 
#
DISCID=8a099c0b
DTITLE=Martina McBride - Walking up laughing
DYEAR=1900
DGENRE=Country
TTITLE0=If I had your name
TTITLE1=Cry Cry (til the sun shines)
TTITLE2=Tryin'to find a reason
TTITLE3=For thes times
TTITLE4=Anyway (Album and digital single version)
TTITLE5=How I feel
TTITLE6=I'll stil be me
TTITLE7=Beautiful again
TTITLE8=Everybody does
TTITLE9=House of a thousand dreams
TTITLE10=Love land
EXTD=
EXTT0=
EXTT1=
EXTT2=
EXTT3=
EXTT4=
EXTT5=
EXTT6=
EXTT7=
EXTT8=
EXTT9=
EXTT10=
PLAYORDER=
